<svg width="15" height="21" viewBox="0 0 15 21" fill="none" xmlns="http://www.w3.org/2000/svg">
<path d="M13.1331 2.90271C11.8178 1.02048 9.95098 0 7.87198 0C5.79297 0 3.90489 1.02048 2.61082 2.90271C1.76225 4.10461 1.16825 5.64667 0.913673 7.34748C0.85003 7.57425 1.01974 7.8237 1.2531 7.86906C1.48646 7.89173 1.6986 7.73299 1.74103 7.48354C1.97439 5.94148 2.50475 4.53548 3.28968 3.44696C4.43525 1.81419 6.04754 0.907096 7.87198 0.907096C9.6752 0.907096 11.3087 1.81419 12.4543 3.44696C13.5574 5.0117 14.1514 7.14338 14.1514 9.4338C14.1514 11.1346 13.8332 12.7674 13.1968 14.1053C12.5816 15.4433 11.7118 16.4865 10.6511 17.1441C10.545 17.2121 10.4813 17.3029 10.4601 17.4389C10.1631 18.7089 9.10241 19.6159 7.87198 19.6159C6.64155 19.6159 5.55961 18.7315 5.28383 17.4389C5.2414 17.3255 5.17775 17.2348 5.07168 17.1668C4.01097 16.5091 3.14118 15.4433 2.52596 14.128C1.91075 12.7674 1.59253 11.1346 1.59253 9.4338C1.59253 9.18435 1.4016 8.98025 1.16824 8.98025C0.934887 8.98025 0.743958 9.18435 0.743958 9.4338C0.743958 11.2707 1.1046 13.0395 1.78346 14.5135C2.44111 15.9422 3.37454 17.0988 4.4989 17.8471C4.9444 19.4345 6.30212 20.523 7.87198 20.523C9.44184 20.523 10.7996 19.4345 11.2451 17.8471C12.3694 17.0988 13.3241 15.9422 13.9605 14.5135C14.6394 13.0395 15 11.2707 15 9.4338C15 6.93928 14.3211 4.62619 13.1331 2.90271Z" fill="#961914"/>
</svg>
