<svg width="23" height="16" viewBox="0 0 23 16" fill="none" xmlns="http://www.w3.org/2000/svg">
<path d="M21.0394 2.78313C19.9847 2.03614 18.5109 1.43374 16.6449 0.975904C13.0482 0.0963855 8.99177 0 7.40976 0C3.32628 0 0 2.96386 0 6.60241V9.39759C0 13.0361 3.32628 16 7.40976 16C9.28924 16 10.709 15.4699 12.2099 14.9157C13.7648 14.3373 15.3604 13.747 17.6185 13.747C20.5932 13.747 23 11.5904 23 8.95181V6.15663C23 4.84337 22.3374 3.71084 21.0394 2.78313ZM20.6608 9.62651C20.8366 9.78313 21.1205 9.79518 21.2963 9.63855C21.6073 9.38554 21.8642 9.09639 22.0941 8.79518V8.95181C22.0941 11.1566 20.0794 12.9518 17.6049 12.9518C15.1711 12.9518 13.4809 13.5783 11.8583 14.1807C10.4521 14.7108 9.11346 15.2048 7.40976 15.2048C3.96179 15.2048 1.12228 12.8072 0.905938 9.77108C2.16343 11.8193 4.61082 13.2048 7.40976 13.2048C9.28924 13.2048 10.709 12.6747 12.2099 12.1205C13.7648 11.5422 15.3604 10.9518 17.6185 10.9518C17.7807 10.9518 17.9565 10.9398 18.1188 10.9277C18.3621 10.9036 18.5514 10.7108 18.5244 10.494C18.4974 10.2771 18.281 10.1084 18.0376 10.1325C17.9024 10.1446 17.7537 10.1446 17.6185 10.1446C15.1846 10.1446 13.4944 10.7711 11.8718 11.3735C10.4521 11.9157 9.11346 12.4096 7.40976 12.4096C3.81305 12.4096 0.892416 9.80723 0.892416 6.60241C0.892416 3.39759 3.81305 0.795181 7.40976 0.795181C8.95121 0.795181 12.913 0.891566 16.4015 1.74699C20.174 2.6747 22.0941 4.15663 22.0941 6.15663C22.0941 7.25301 21.5802 8.31325 20.6743 9.06024C20.4985 9.21687 20.4985 9.46988 20.6608 9.62651Z" fill="#961914"/>
</svg>
