<svg width="20" height="14" viewBox="0 0 20 14" fill="none" xmlns="http://www.w3.org/2000/svg">
<path d="M18.2951 2.43524C17.378 1.78163 16.0964 1.25452 14.4738 0.853916C11.3463 0.0843373 7.81893 0 6.44327 0C2.89242 0 0 2.59337 0 5.77711V8.22289C0 11.4066 2.89242 14 6.44327 14C8.0776 14 9.31217 13.5361 10.6173 13.0512C11.9694 12.5452 13.3568 12.0286 15.3204 12.0286C17.9071 12.0286 20 10.1416 20 7.83283V5.38705C20 4.23795 19.4239 3.24699 18.2951 2.43524ZM17.9659 8.42319C18.1188 8.56024 18.3657 8.57078 18.5185 8.43373C18.7889 8.21235 19.0123 7.95934 19.2122 7.69578V7.83283C19.2122 9.76205 17.4603 11.3328 15.3086 11.3328C13.1922 11.3328 11.7225 11.881 10.3116 12.4081C9.08877 12.872 7.92475 13.3042 6.44327 13.3042C3.44503 13.3042 0.975897 11.2063 0.787772 8.5497C1.88125 10.3419 4.00941 11.5542 6.44327 11.5542C8.0776 11.5542 9.31217 11.0904 10.6173 10.6054C11.9694 10.0994 13.3568 9.58283 15.3204 9.58283C15.4615 9.58283 15.6143 9.57229 15.7554 9.56175C15.9671 9.54066 16.1317 9.37199 16.1082 9.18223C16.0847 8.99247 15.8965 8.84488 15.6849 8.86596C15.5673 8.87651 15.438 8.87651 15.3204 8.87651C13.204 8.87651 11.7343 9.4247 10.3233 9.95181C9.08877 10.4262 7.92475 10.8584 6.44327 10.8584C3.3157 10.8584 0.776014 8.58133 0.776014 5.77711C0.776014 2.97289 3.3157 0.695783 6.44327 0.695783C7.78366 0.695783 11.2287 0.780121 14.2622 1.52861C17.5426 2.34036 19.2122 3.63705 19.2122 5.38705C19.2122 6.34639 18.7654 7.2741 17.9777 7.92771C17.8248 8.06476 17.8248 8.28614 17.9659 8.42319Z" fill="#961914"/>
</svg>
